<!-- Congress.gov API Logo - Enhanced Design -->
<svg width="400" height="120" xmlns="http://www.w3.org/2000/svg">
  <defs>
    <!-- Gradients -->
    <linearGradient id="navyGrad" x1="0%" y1="0%" x2="100%" y2="100%">
      <stop offset="0%" style="stop-color:#0A1F44"/>
      <stop offset="100%" style="stop-color:#1A365D"/>
    </linearGradient>
    
    <!-- Circuit Pattern -->
    <pattern id="circuit" x="0" y="0" width="30" height="30" patternUnits="userSpaceOnUse">
      <path d="M5,5 L25,5 M15,5 L15,25 M5,15 L25,15" stroke="#FFD700" stroke-width="0.5" opacity="0.3"/>
      <path d="M15,15 L25,25 M15,15 L5,25" stroke="#FFD700" stroke-width="0.5" opacity="0.3"/>
      <circle cx="15" cy="15" r="2" fill="#FFD700" opacity="0.4"/>
      <circle cx="5" cy="5" r="1.5" fill="#FFD700" opacity="0.4"/>
      <circle cx="25" cy="5" r="1.5" fill="#FFD700" opacity="0.4"/>
      <circle cx="5" cy="25" r="1.5" fill="#FFD700" opacity="0.4"/>
      <circle cx="25" cy="25" r="1.5" fill="#FFD700" opacity="0.4"/>
    </pattern>

    <!-- Star Filter -->
    <filter id="starGlow" x="-50%" y="-50%" width="200%" height="200%">
      <feGaussianBlur in="SourceGraphic" stdDeviation="1" result="blur"/>
      <feColorMatrix in="blur" type="matrix" values="1 0 0 0 1   0 1 0 0 1   0 0 1 0 1  0 0 0 3 0"/>
    </filter>
  </defs>

  <!-- Background Banner -->
  <path d="M0,20 Q200,0 400,20 L400,100 Q200,120 0,100 Z" fill="url(#navyGrad)"/>
  
  <!-- Capitol Dome -->
  <g transform="translate(160,25)">
    <!-- Base -->
    <path d="M0,60 L80,60 C80,60 75,30 40,30 C5,30 0,60 0,60" fill="url(#circuit)" stroke="#FFD700" stroke-width="1.5"/>
    <!-- Columns -->
    <path d="M10,60 L10,45 M20,60 L20,42 M30,60 L30,40 M40,60 L40,40 M50,60 L50,40 M60,60 L60,42 M70,60 L70,45" 
          stroke="#FFD700" stroke-width="1" opacity="0.7"/>
    <!-- Dome -->
    <path d="M0,30 Q40,0 80,30" fill="none" stroke="#FFD700" stroke-width="2"/>
  </g>

  <!-- Stars with Glow -->
  <g fill="#E63946" filter="url(#starGlow)">
    <path d="M150,35 l2,6 h6 l-5,4 l2,6 l-5-4 l-5,4 l2-6 l-5-4 h6 z"/>
    <path d="M250,25 l2,6 h6 l-5,4 l2,6 l-5-4 l-5,4 l2-6 l-5-4 h6 z"/>
    <path d="M200,15 l2,6 h6 l-5,4 l2,6 l-5-4 l-5,4 l2-6 l-5-4 h6 z"/>
  </g>

  <!-- Text with Shadow -->
  <g style="font-family: 'Montserrat', sans-serif;">
    <text x="50" y="70" font-size="28" fill="#FFD700" font-weight="600" letter-spacing="1">
      <tspan style="filter: url(#shadow)">Congress.gov</tspan>
    </text>
    <text x="270" y="70" font-size="28" fill="#E63946" font-weight="600" letter-spacing="1">API</text>
  </g>

  <!-- Dynamic Stripes -->
  <path d="M20,90 Q200,85 380,90" stroke="#E63946" stroke-width="3" fill="none"/>
  <path d="M40,98 Q200,95 360,98" stroke="#FFD700" stroke-width="2" fill="none"/>
</svg> 